# xmcd CD database file
#
# Track frame offsets:
#	150
#	14076
#	27095
#	40974
#	54182
#	67626
#	81163
#	94549
#	107535
#	121715
#	136208
#	150348
#	164581
#	179587
#	197112
#	210599
#	224031
#	242359
#	256320
#	271184
#
# Disc length: 3795 seconds
#
# Revision: 4
# Processed by: cddbd v1.5.2PL0 Copyright (c) Steve Scherf et al.
# Submitted via: CDex 1.51
#
DISCID=070ed114
DTITLE=Buck Clayton - Fiesta In Blue
DYEAR=2001
DGENRE=Jazz
TTITLE0=I Know That You Know  [1938]
TTITLE1=Good Morning Blues  [1938]
TTITLE2=Laughing At Life  [1938]
TTITLE3=Pagin' The Devil  [1938]
TTITLE4=Them There Eyes  [1938]
TTITLE5=Countless Blues  [1938]
TTITLE6=Way Down Yonder In New Orleans  [1938]
TTITLE7=I Want A Little Girl  [1938]
TTITLE8=Dickie's Dream  [1939]
TTITLE9=Love Jumped Out  [1940]
TTITLE10=Fiesta In Blue  [1941]
TTITLE11=Royal Garden Blues  [1942]
TTITLE12=St. Louis Blues  [1942]
TTITLE13=Destination K. C.  [1944]
TTITLE14=A Shanty In Old Shanty Town  [1944]
TTITLE15=Rattle And Roll  [1945]
TTITLE16=Love Me Or Leave Me  [1945]
TTITLE17=Them There Eyes  [1945]
TTITLE18=You Came Along (From Out Of Nowhere)  [1945]
TTITLE19=If Dreams Come True  [1945]
EXTD=Past Perfect 205732-203 YEAR: 2001
EXTT0=
EXTT1=
EXTT2=
EXTT3=
EXTT4=
EXTT5=
EXTT6=
EXTT7=
EXTT8=
EXTT9=
EXTT10=
EXTT11=
EXTT12=
EXTT13=
EXTT14=
EXTT15=
EXTT16=
EXTT17=
EXTT18=
EXTT19=
PLAYORDER=
